<svg width="117" height="67" viewBox="0 0 117 67" fill="none" xmlns="http://www.w3.org/2000/svg">
    <path d="M31.3095 27.2933C33.1869 26.1669 36.2211 23.5387 37.3789 22.4752L37.1911 22.2561C36.1272 23.4138 33.0928 25.5409 32.1542 25.8849C31.5596 25.6657 31.028 25.3846 30.903 24.8529C30.8092 24.384 30.4961 23.007 30.8401 20.7857L31.4347 16.7814C33.5308 16.8757 35.3451 16.9377 36.7527 16.9377C38.0355 16.9377 38.63 17.0006 39.5057 16.8443C40.2567 16.7499 41.9773 15.2176 41.3831 15.2176C40.6321 15.1862 39.0679 15.1548 37.5974 15.1548C36.1271 15.1548 34.0939 15.1548 31.7163 15.1233C32.3735 11.119 33.2492 6.14544 33.9062 2.89206H34.3755C36.096 2.89206 42.6342 3.70495 43.6663 3.45437C44.4487 2.95404 45.0118 1.95344 45.0118 1.48369C44.7303 1.39024 44.2295 1.39024 44.0108 1.39024C42.5713 1.39024 38.098 1.60942 32.0917 1.60942H26.3978C25.0528 1.60942 21.7993 1.60942 21.2986 1.85911C21.0798 2.2346 18.9839 4.08043 19.5781 4.08043C20.235 4.08043 22.9252 3.48583 26.273 3.07977C28.0246 2.92257 29.9956 2.86059 31.6224 2.86059L21.4865 15.0298C17.2321 14.9354 13.4779 14.9354 11.3508 14.9354C6.34544 14.9354 2.37211 18.0019 0.620224 20.6607C-1.19427 23.2889 1.05864 29.264 6.25162 29.264C9.34869 29.264 10.9439 28.0433 16.4186 21.8806C16.8879 21.4117 18.7023 19.1904 21.1111 16.2182C23.9894 16.3753 26.8674 16.5622 29.5265 16.6879C29.1824 18.4395 28.9633 19.9413 28.807 20.9734C28.4626 23.0698 28.6502 23.8513 28.7442 25.072C28.7755 25.6657 29.0886 26.6672 29.8392 27.2618C29.9958 27.4181 30.9655 27.4496 31.3095 27.2933ZM15.8241 21.912C10.287 28.2004 9.84896 28.1062 8.03471 28.1062C3.52971 28.1062 1.34011 23.3195 2.74766 20.2538C4.09285 17.1253 6.0011 15.7178 9.50494 15.7178C12.1327 15.7178 16.1995 15.9369 20.6107 16.1875C18.4518 18.7215 16.7941 20.8799 15.8241 21.912ZM29.8081 15.1232L22.0182 15.0298L32.1543 2.92257C31.5912 5.55078 30.5585 10.7434 29.8081 15.1232Z" fill="white"/>
    <path d="M46.4734 27.3238C49.602 24.7279 52.386 22.194 54.6388 20.0347C56.4842 18.2831 59.1435 15.5301 59.2373 13.8099C59.3311 12.4644 58.0799 10.994 57.2351 11.4009C55.7647 12.1518 53.5439 13.5594 52.3236 14.7791L52.4489 14.9049C53.6688 13.9034 55.1076 13.0276 55.89 12.8085C56.6409 13.0276 57.0788 13.9977 57.0788 14.8735C57.0788 16.2496 56.4218 17.8448 54.4195 19.847C52.2612 22.0063 49.3518 24.6022 47.7246 25.9477H47.6937C47.0991 25.9477 46.8804 25.3531 46.8489 25.1034C47.5999 21.7557 48.5385 16.5621 48.4446 15.0927C48.3193 12.1833 47.3182 10.7749 45.8478 11.5572C44.3775 12.371 42.4692 13.8099 41.3742 14.9049L41.531 15.0297C42.532 14.1225 44.0649 13.1839 44.659 13.0276C45.2537 13.059 45.9732 13.8405 46.0041 15.8426C46.0041 17.8762 44.8783 23.5386 44.2837 26.3546C44.2837 27.136 45.4414 27.5429 45.7854 27.5429C46.0041 27.543 46.2547 27.543 46.4734 27.3238Z" fill="white"/>
    <path d="M63.4244 27.5744C64.9258 27.5744 66.3648 26.8235 67.4598 26.2289C69.1179 25.3217 71.0261 23.8828 72.3088 22.3504L72.0273 22.1941C71.0261 23.4138 69.0241 25.0091 68.1793 25.3531C67.0219 25.8848 65.4266 26.2603 64.4256 25.9792C63.5808 25.76 62.9551 25.1339 62.6108 23.9142C62.5797 23.4453 62.5797 22.9755 62.6108 22.4752C71.4641 17.376 74.6237 14.8106 74.2796 12.777C74.1233 11.7764 72.903 11.3066 71.4955 11.3066C70.2443 11.3066 68.8363 11.7764 67.6162 12.433C65.5201 13.6223 63.0176 15.8741 61.8287 18.002C59.5764 21.7557 59.9204 23.8513 60.2644 25.1034C60.7652 26.4795 62.1728 27.5744 63.4244 27.5744ZM68.2107 12.4016C70.0876 11.8078 72.559 13.465 71.808 15.4052C71.3078 16.9376 68.8362 18.4709 62.642 22.1625C63.1428 18.064 66.3963 13.6222 68.2107 12.4016Z" fill="white"/>
    <path d="M78.9998 13.1525C79.6567 13.3716 79.9698 13.9348 80.0007 14.4666C80.126 17.0319 76.0903 23.4758 74.2135 25.9792C73.5563 27.7307 75.4649 27.2618 76.0903 27.2618C81.0334 19.4095 83.2546 14.4351 86.0073 13.5908C87.603 13.5593 88.698 13.9348 89.5737 13.9662C90.1683 13.8718 91.4509 12.2767 91.5449 11.6506C91.482 11.4323 89.355 11.3694 88.2911 11.4629C86.2264 11.8698 84.1305 14.2474 81.6279 17.5008C82.1598 16.3439 82.5662 15.2803 82.4723 14.4351C82.3783 13.403 81.659 10.7434 80.1886 11.5572C78.2803 12.6521 76.3096 14.3722 75.1208 15.4672L75.3399 15.6864C76.5597 14.3417 78.1239 13.3716 78.9998 13.1525Z" fill="white"/>
    <path d="M90.8843 15.4052C92.0417 14.4037 93.9814 13.0276 94.7633 12.777C95.2326 12.8713 95.8582 13.5594 95.7019 14.154C95.4519 15.186 94.3569 16.4373 92.7302 19.1589C91.5724 21.0676 89.7893 23.6635 89.8831 24.9462C89.9142 25.5723 90.3835 26.6672 91.1659 27.2618C91.3536 27.4495 92.5735 27.4495 92.8864 27.2933C94.8885 26.0726 96.5777 24.5088 97.735 23.3824L97.5478 23.1633C96.3898 24.3211 94.7947 25.5409 93.7935 25.8849C93.1681 25.6658 92.4794 25.2597 92.4485 24.728C92.3547 23.5702 93.7623 21.6309 94.9823 19.6593C96.0773 17.8763 98.361 15.1862 98.361 13.9349C98.361 13.184 97.5788 11.5573 96.8592 11.2447C96.5151 11.0884 96.1711 11.119 95.8267 11.3382C94.263 12.3397 91.7599 14.1541 90.6651 15.2491L90.8843 15.4052Z" fill="white"/>
    <path d="M106.745 0.732648C107.245 0.232317 106.464 -0.299415 106.025 0.200916C104.461 2.42224 101.489 5.76989 98.4861 8.86703L98.6737 9.05474C101.802 5.8948 104.868 2.86059 106.745 0.732648Z" fill="white"/>
    <path d="M112.874 25.8229C112.248 25.6037 111.998 25.1034 111.967 24.5708C111.873 23.4138 113.156 21.4737 114.313 19.5029C117.567 14.0282 117.661 11.7763 115.69 11.338C113.531 11.9956 108.088 16.281 104.49 20.8799C105.679 18.8463 107.243 16.0618 107.149 14.4351C107.055 13.4031 106.336 10.7435 104.865 11.5572C102.957 12.6522 100.986 14.3723 99.7976 15.4672L100.017 15.6864C101.236 14.3418 102.801 13.3717 103.677 13.1525C104.334 13.3717 104.647 13.9349 104.678 14.4666C104.803 17.032 100.767 23.4759 98.8903 25.9793C98.2333 27.7308 100.142 27.2619 100.767 27.2619C101.456 26.167 102.613 24.102 103.708 22.5067C107.306 17.3131 112.155 13.528 114 12.9334C114.782 13.6224 114.814 14.5296 112.217 19.0342C111.153 20.942 109.308 23.5074 109.401 24.7901C109.401 25.4161 109.84 26.6674 110.59 27.262C110.747 27.3868 111.654 27.5117 111.998 27.2934C114 26.0728 115.69 24.5089 116.847 23.3826L116.66 23.1634C115.502 24.3211 113.875 25.478 112.874 25.8229Z" fill="white"/>
    <path d="M36.4513 32.6868C35.848 32.6868 33.394 32.7284 33.0613 32.7284C32.7285 32.7284 30.7113 32.6868 30.524 32.6868C30.3578 32.6868 30.3578 32.8741 30.524 32.8741C31.855 32.8741 31.8965 32.8741 31.8965 34.7666C31.8965 35.9103 31.959 37.9691 31.959 38.9259C31.959 39.8617 32.0423 42.7732 31.9383 44.1875C31.7717 46.8078 31.5848 46.9533 30.3785 46.9533C30.1498 46.9533 30.1498 47.0989 30.3785 47.0989L33.3107 47.0366C33.7893 47.0573 34.2257 47.0573 34.6624 47.0782C35.3905 47.0989 36.1807 47.0989 36.5342 47.0989C41.0057 47.0989 44.3954 44.1665 44.3954 39.9032C44.3954 35.5775 40.7352 32.6868 36.4513 32.6868ZM36.576 46.8909C35.6192 46.8909 33.9555 46.8078 33.4355 46.8078C33.5188 46.4541 33.602 45.3519 33.602 43.7507V38.0731C33.602 32.9779 33.6228 32.8741 35.037 32.8741H36.4094C40.1322 32.8741 42.5443 35.6398 42.5443 39.9032C42.5443 44.1666 40.3403 46.8909 36.576 46.8909Z" fill="white"/>
    <path d="M50.6338 47.0782C51.7361 47.0782 53.0882 47.0989 53.8159 47.0989C55.2716 47.0989 56.4985 47.0989 56.5818 47.0156C56.7484 46.9118 56.8313 46.0799 57.2266 42.7108L57.3513 41.5878C57.3721 41.4422 57.1433 41.4214 57.1226 41.5669L56.9979 42.6691C56.7273 44.7903 55.0428 46.8701 52.6096 46.8701C51.9648 46.8701 49.2821 46.8077 48.6792 46.8077C48.7625 46.4541 48.8454 45.3518 48.8454 43.7506V39.7577H50.5717C53.1711 39.7577 53.7326 40.735 53.7326 42.17V42.482C53.7326 42.6484 53.9406 42.6484 53.9406 42.482C53.9406 42.17 53.8366 39.924 53.8366 39.6327C53.8366 39.3209 53.9406 37.3035 53.9406 36.6797C53.9406 36.5133 53.7326 36.5133 53.7326 36.6797V37.1164C53.7326 38.5307 53.1711 39.508 50.5717 39.508H48.8454V38.073C48.8454 32.9778 48.6999 32.9363 49.6356 32.9363H52.2769C54.6687 32.9571 56.2698 34.2464 56.6652 36.5965L56.7692 37.3451C56.8313 37.4908 57.0393 37.4908 56.9772 37.3451L56.8939 36.5965C56.5819 34.3504 56.3946 32.8323 56.2906 32.7699C56.1451 32.7074 55.7083 32.6867 55.3134 32.6867C54.5854 32.6867 48.2632 32.749 47.993 32.749C47.681 32.749 46.2667 32.6867 45.6845 32.6867C45.518 32.6867 45.518 32.8739 45.6845 32.8739H46.0587C47.0777 32.8739 47.265 32.9778 47.265 38.073C47.265 40.0071 47.2858 42.7523 47.1817 44.1873C47.0155 46.8077 46.8282 46.9531 45.622 46.9531C45.3932 46.9531 45.3932 47.0988 45.622 47.0988L48.5545 47.0364C49.2821 47.0572 49.9684 47.0572 50.6338 47.0782Z" fill="white"/>
    <path d="M62.987 47.0989C63.1325 47.0989 63.1325 46.9118 62.987 46.9118H62.6957C61.6768 46.9118 60.512 46.8079 60.512 41.7126L60.533 34.2051L70.5569 46.7038C70.7231 46.9326 70.9311 47.1613 71.0769 47.1613C71.1809 47.1613 71.2431 47.0989 71.2431 46.9533V38.0731C71.2431 32.9779 71.5551 32.8741 72.5741 32.8741H72.7196C72.8861 32.8741 72.8861 32.6868 72.7196 32.6868C72.1166 32.6868 71.4097 32.7491 71.0976 32.7491C70.7649 32.7491 68.9139 32.6868 68.3109 32.6868C68.1444 32.6868 68.1444 32.8741 68.3109 32.8741H68.6018C69.6001 32.8741 70.9729 32.9779 70.9729 38.0731V44.5826L62.3215 33.8306C61.9888 33.4356 61.656 32.9988 61.5102 32.7284C61.4688 32.6451 61.4062 32.6037 61.3025 32.6037C61.1567 32.6037 60.3665 32.6868 58.2038 32.6868C58.058 32.6868 58.058 32.8532 58.2038 32.8532H58.2868C59.0148 32.8532 59.4515 33.1236 59.9297 33.6019C60.1792 33.8514 60.2625 34.1011 60.2625 34.2465L60.2417 41.7126C60.2417 46.6205 59.6177 46.9118 58.7027 46.9118H58.578C58.3907 46.9118 58.4115 47.0989 58.5573 47.0989C59.1395 47.0989 59.9297 47.0366 60.2417 47.0366C60.5538 47.0365 62.363 47.0989 62.987 47.0989Z" fill="white"/>
    <path d="M86.2576 38.1147L86.1122 36.9293C85.7794 34.7039 85.9874 32.6867 85.8627 32.6243C85.7169 32.562 84.7605 32.4787 83.3255 32.4787H83.3047C81.2042 32.4787 80.8715 32.5203 79.9562 32.5203C79.0412 32.5203 77.1073 32.4787 76.5873 32.4787C75.1523 32.4787 74.1959 32.562 74.0501 32.6243C73.9461 32.6867 74.0919 34.7039 73.8213 36.9293L73.6551 38.1147C73.5926 38.2603 73.8006 38.2603 73.8631 38.1147L74.0294 36.9293C74.4246 34.205 75.2563 32.6867 77.4608 32.6867C77.939 32.6867 78.5838 32.6867 79.166 32.6659V41.7125C79.166 46.8076 79.0619 46.9117 78.043 46.9117H77.6688C77.5022 46.9117 77.5022 47.0988 77.6688 47.0988C78.251 47.0988 79.6652 47.0364 79.9773 47.0364C80.2682 47.0364 81.6618 47.0988 82.2647 47.0988C82.4312 47.0988 82.4312 46.9117 82.2647 46.9117H81.8904C80.8715 46.9117 80.7675 46.8077 80.7675 41.7125V32.666H82.4312C84.6979 32.666 85.4466 34.2258 85.8834 36.9293L86.0707 38.1147C86.1329 38.2603 86.3202 38.2603 86.2576 38.1147Z" fill="white"/>
    <path d="M101.605 46.9118H101.439C100.462 46.9118 100.129 46.5998 98.0699 41.7125L94.285 32.6867C94.2642 32.6451 94.181 32.6243 94.0769 32.6243H93.8693C93.786 32.6243 93.7442 32.6451 93.7234 32.6867L89.7098 42.7107C89.377 43.605 88.857 44.7696 88.3373 45.6638C87.9006 46.4957 87.4013 46.9117 86.8398 46.9117H86.7565C86.6736 46.9117 86.6318 46.9324 86.6318 46.9948C86.6318 47.0572 86.6736 47.0988 86.7565 47.0988C87.2765 47.0988 88.2126 47.0572 88.4828 47.0572C88.8363 47.0572 90.4793 47.0988 90.8535 47.0988C91.0823 47.0988 91.1033 47.0364 91.1033 46.9741C91.1033 46.9117 91.0615 46.8701 90.9575 46.8701C90.8745 46.8701 90.5418 46.9324 90.3752 46.9324C89.6057 46.9324 89.2108 46.5997 89.2108 45.9135C89.2108 44.9983 89.6265 43.709 89.9592 42.8148L90.3127 41.9413C90.916 41.9413 93.0372 42.0037 94.0354 42.0037L96.4687 41.9413C98.4651 46.5581 98.2571 46.9118 97.3837 46.9118H96.9469C96.7807 46.9118 96.8428 47.0988 97.0094 47.0988C97.6124 47.0988 99.1932 47.0365 99.526 47.0365C99.8377 47.0365 101.023 47.0988 101.626 47.0988C101.709 47.0988 101.751 47.0572 101.751 46.9949C101.751 46.9325 101.709 46.9118 101.605 46.9118ZM96.3646 41.7333H93.9107L90.3752 41.7542L93.2659 34.4545L96.3646 41.7125L96.3646 41.7333Z" fill="white"/>
    <path d="M113.46 40.2152L113.252 42.1077C112.982 44.2082 111.36 46.8702 108.947 46.8702C108.282 46.8702 105.599 46.8078 104.975 46.8078C105.058 46.4541 105.142 45.3519 105.142 43.7507V38.0731C105.142 32.9779 105.162 32.8741 106.577 32.8741H107.159C107.325 32.8741 107.325 32.6868 107.159 32.6868C106.535 32.6868 104.913 32.7284 104.601 32.7284C104.268 32.7284 102.251 32.6868 102.064 32.6868C101.898 32.6868 101.898 32.8741 102.064 32.8741C103.395 32.8741 103.436 32.8741 103.436 34.7666C103.436 35.9103 103.499 37.9691 103.499 38.9259C103.499 39.8617 103.582 42.7732 103.478 44.1875C103.311 46.8078 103.124 46.9533 101.918 46.9533C101.69 46.9533 101.69 47.0989 101.918 47.0989L104.85 47.0366C105.537 47.0573 106.223 47.0573 106.889 47.0782C107.991 47.0782 109.301 47.0989 110.029 47.0989C111.485 47.0989 112.712 47.0573 112.795 46.9742C112.961 46.8702 113.086 45.6223 113.481 42.1494L113.689 40.236C113.71 40.0905 113.481 40.0696 113.46 40.2152Z" fill="white"/>
    <path d="M38.7815 66.0906C34.9962 66.0906 32.8128 63.1582 32.8128 58.8949C32.8128 54.6315 35.2042 51.6784 38.9477 51.6784C42.1711 51.6784 43.8142 53.6125 44.1469 56.9193H44.3342L44.0844 52.3855C42.9614 51.8864 40.6322 51.4703 38.9063 51.4703C34.6427 51.4703 30.9411 54.5483 30.9411 58.8948C30.9411 63.1374 34.3518 66.2985 38.823 66.2985C41.0689 66.2985 42.9821 65.8825 44.1262 65.3833L44.3756 60.5378H44.2091C43.8763 63.886 42.2544 66.0906 38.7815 66.0906Z" fill="white"/>
    <path d="M57.6426 59.2069L57.4346 61.0994C57.1644 63.1999 55.5421 65.8618 53.13 65.8618C52.4645 65.8618 49.7815 65.7995 49.1578 65.7995C49.2411 65.4458 49.324 64.3436 49.324 62.7424V57.0648C49.324 51.9696 49.3451 51.8657 50.7589 51.8657H51.3415C51.5077 51.8657 51.5077 51.6785 51.3415 51.6785C50.7175 51.6785 49.0952 51.7201 48.7832 51.7201C48.4504 51.7201 46.4332 51.6785 46.2463 51.6785C46.0797 51.6785 46.0797 51.8657 46.2463 51.8657C47.5773 51.8657 47.6187 51.8657 47.6187 53.7582C47.6187 54.902 47.6812 56.9608 47.6812 57.9176C47.6812 58.8534 47.7641 61.7649 47.6601 63.1792C47.4939 65.7995 47.3066 65.9449 46.1004 65.9449C45.8716 65.9449 45.8716 66.0906 46.1004 66.0906L49.0329 66.0282C49.7191 66.049 50.4053 66.049 51.0709 66.0699C52.1731 66.0699 53.4834 66.0906 54.2111 66.0906C55.6672 66.0906 56.8941 66.049 56.9771 65.9659C57.1436 65.8619 57.2684 64.614 57.6636 61.1411L57.8713 59.2277C57.8925 59.0822 57.6637 59.0612 57.6426 59.2069Z" fill="white"/>
    <path d="M63.2789 51.8657H63.7157C63.8819 51.8657 63.8819 51.6785 63.7157 51.6785C63.1334 51.6785 61.6777 51.7408 61.3657 51.7408C61.0951 51.7408 59.5561 51.6785 58.9946 51.6785C58.8284 51.6785 58.8284 51.8657 58.9946 51.8657H59.4314C60.4504 51.8657 60.5544 51.9696 60.5544 57.0648V60.7042C60.5544 65.7994 60.4504 65.9035 59.4314 65.9035H58.9946C58.8284 65.9035 58.8284 66.0905 58.9946 66.0905C59.5561 66.0905 61.0951 66.0282 61.3657 66.0282C61.6777 66.0282 63.1334 66.0905 63.7157 66.0905C63.8819 66.0905 63.8819 65.9035 63.7157 65.9035H63.2789C62.2599 65.9035 62.1559 65.7995 62.1559 60.7042V57.0648C62.156 51.9696 62.2599 51.8657 63.2789 51.8657Z" fill="white"/>
    <path d="M78.7724 51.6784C78.1695 51.6784 77.4622 51.7408 77.1502 51.7408C76.8174 51.7408 74.9667 51.6784 74.3634 51.6784C74.1972 51.6784 74.1972 51.8657 74.3634 51.8657H74.6547C75.653 51.8657 77.0254 51.9695 77.0254 57.0647V63.5742L68.374 52.8223C68.0413 52.4272 67.7086 51.9904 67.5631 51.72C67.5216 51.6367 67.459 51.5953 67.3551 51.5953C67.2096 51.5953 66.4194 51.6784 64.2564 51.6784C64.1109 51.6784 64.1109 51.8448 64.2564 51.8448H64.3397C65.0674 51.8448 65.5041 52.1152 65.9826 52.5936C66.2321 52.843 66.3154 53.0927 66.3154 53.2382L66.2943 60.7043C66.2943 65.6122 65.6707 65.9035 64.7557 65.9035H64.6306C64.4437 65.9035 64.4644 66.0906 64.6098 66.0906C65.1924 66.0906 65.9826 66.0282 66.2943 66.0282C66.6063 66.0282 68.4159 66.0906 69.0396 66.0906C69.1854 66.0906 69.1854 65.9035 69.0396 65.9035H68.7486C67.7293 65.9035 66.5649 65.7995 66.5649 60.7043L66.5856 53.1967L76.6095 65.6955C76.776 65.9242 76.984 66.1529 77.1295 66.1529C77.2335 66.1529 77.296 66.0906 77.296 65.9449V57.0647C77.296 51.9695 77.6077 51.8657 78.627 51.8657H78.7725C78.9386 51.8657 78.9386 51.6784 78.7724 51.6784Z" fill="white"/>
    <path d="M84.0123 51.8657H84.449C84.6156 51.8657 84.6156 51.6785 84.449 51.6785C83.8668 51.6785 82.4111 51.7408 82.0991 51.7408C81.8289 51.7408 80.2899 51.6785 79.7284 51.6785C79.5619 51.6785 79.5619 51.8657 79.7284 51.8657H80.1652C81.1841 51.8657 81.2882 51.9696 81.2882 57.0648V60.7042C81.2882 65.7994 81.1842 65.9035 80.1652 65.9035H79.7284C79.5619 65.9035 79.5619 66.0905 79.7284 66.0905C80.2899 66.0905 81.8289 66.0282 82.0991 66.0282C82.4111 66.0282 83.8668 66.0905 84.449 66.0905C84.6156 66.0905 84.6156 65.9035 84.449 65.9035H84.0123C82.9933 65.9035 82.8893 65.7995 82.8893 60.7042V57.0648C82.8893 51.9696 82.9933 51.8657 84.0123 51.8657Z" fill="white"/>
    <path d="M93.7452 66.0906C89.9599 66.0906 87.7765 63.1582 87.7765 58.8949C87.7765 54.6315 90.168 51.6784 93.9115 51.6784C97.1349 51.6784 98.7779 53.6125 99.1107 56.9193H99.298L99.0481 52.3855C97.9251 51.8864 95.5959 51.4703 93.87 51.4703C89.6065 51.4703 85.9048 54.5483 85.9048 58.8948C85.9048 63.1374 89.3156 66.2985 93.7867 66.2985C96.0327 66.2985 97.9459 65.8825 99.0899 65.3833L99.3394 60.5378H99.1729C98.8401 63.886 97.2182 66.0906 93.7452 66.0906Z" fill="white"/>
</svg>
